<?xml version="1.0" standalone="no"?>
<svg xmlns:xlink="http://www.w3.org/1999/xlink" id="wave" style="transform:rotate(0deg); transition: 0.3s" viewBox="0 0 1440 240" version="1.1" xmlns="http://www.w3.org/2000/svg"><defs><linearGradient id="sw-gradient-0" x1="0" x2="0" y1="1" y2="0"><stop stop-color="rgba(72.79, 22.621, 234.829, 1)" offset="0%"/><stop stop-color="rgba(196.124, 186.79, 166.158, 1)" offset="100%"/></linearGradient></defs><path style="transform:translate(0, 0px); opacity:1" fill="url(#sw-gradient-0)" d="M0,72L40,80C80,88,160,104,240,116C320,128,400,136,480,116C560,96,640,48,720,52C800,56,880,112,960,112C1040,112,1120,56,1200,28C1280,0,1360,0,1440,20C1520,40,1600,80,1680,96C1760,112,1840,104,1920,120C2000,136,2080,176,2160,168C2240,160,2320,104,2400,104C2480,104,2560,160,2640,172C2720,184,2800,152,2880,144C2960,136,3040,152,3120,168C3200,184,3280,200,3360,188C3440,176,3520,136,3600,124C3680,112,3760,128,3840,132C3920,136,4000,128,4080,132C4160,136,4240,152,4320,144C4400,136,4480,104,4560,100C4640,96,4720,120,4800,144C4880,168,4960,192,5040,184C5120,176,5200,136,5280,104C5360,72,5440,48,5520,32C5600,16,5680,8,5720,4L5760,0L5760,240L5720,240C5680,240,5600,240,5520,240C5440,240,5360,240,5280,240C5200,240,5120,240,5040,240C4960,240,4880,240,4800,240C4720,240,4640,240,4560,240C4480,240,4400,240,4320,240C4240,240,4160,240,4080,240C4000,240,3920,240,3840,240C3760,240,3680,240,3600,240C3520,240,3440,240,3360,240C3280,240,3200,240,3120,240C3040,240,2960,240,2880,240C2800,240,2720,240,2640,240C2560,240,2480,240,2400,240C2320,240,2240,240,2160,240C2080,240,2000,240,1920,240C1840,240,1760,240,1680,240C1600,240,1520,240,1440,240C1360,240,1280,240,1200,240C1120,240,1040,240,960,240C880,240,800,240,720,240C640,240,560,240,480,240C400,240,320,240,240,240C160,240,80,240,40,240L0,240Z"/><defs><linearGradient id="sw-gradient-1" x1="0" x2="0" y1="1" y2="0"><stop stop-color="rgba(74.952, 227.554, 255, 1)" offset="0%"/><stop stop-color="rgba(16.837, 38.852, 70.901, 1)" offset="100%"/></linearGradient></defs><path style="transform:translate(0, 50px); opacity:0.9" fill="url(#sw-gradient-1)" d="M0,0L40,32C80,64,160,128,240,148C320,168,400,144,480,120C560,96,640,72,720,84C800,96,880,144,960,144C1040,144,1120,96,1200,72C1280,48,1360,48,1440,64C1520,80,1600,112,1680,120C1760,128,1840,112,1920,116C2000,120,2080,144,2160,132C2240,120,2320,72,2400,52C2480,32,2560,40,2640,44C2720,48,2800,48,2880,60C2960,72,3040,96,3120,116C3200,136,3280,152,3360,160C3440,168,3520,168,3600,168C3680,168,3760,168,3840,172C3920,176,4000,184,4080,168C4160,152,4240,112,4320,80C4400,48,4480,24,4560,32C4640,40,4720,80,4800,100C4880,120,4960,120,5040,136C5120,152,5200,184,5280,200C5360,216,5440,216,5520,180C5600,144,5680,72,5720,36L5760,0L5760,240L5720,240C5680,240,5600,240,5520,240C5440,240,5360,240,5280,240C5200,240,5120,240,5040,240C4960,240,4880,240,4800,240C4720,240,4640,240,4560,240C4480,240,4400,240,4320,240C4240,240,4160,240,4080,240C4000,240,3920,240,3840,240C3760,240,3680,240,3600,240C3520,240,3440,240,3360,240C3280,240,3200,240,3120,240C3040,240,2960,240,2880,240C2800,240,2720,240,2640,240C2560,240,2480,240,2400,240C2320,240,2240,240,2160,240C2080,240,2000,240,1920,240C1840,240,1760,240,1680,240C1600,240,1520,240,1440,240C1360,240,1280,240,1200,240C1120,240,1040,240,960,240C880,240,800,240,720,240C640,240,560,240,480,240C400,240,320,240,240,240C160,240,80,240,40,240L0,240Z"/><defs><linearGradient id="sw-gradient-2" x1="0" x2="0" y1="1" y2="0"><stop stop-color="rgba(178.213, 75.832, 243.936, 1)" offset="0%"/><stop stop-color="rgba(79.668, 68.354, 237.106, 1)" offset="100%"/></linearGradient></defs><path style="transform:translate(0, 100px); opacity:0.8" fill="url(#sw-gradient-2)" d="M0,144L40,148C80,152,160,160,240,168C320,176,400,184,480,160C560,136,640,80,720,60C800,40,880,56,960,76C1040,96,1120,120,1200,128C1280,136,1360,128,1440,120C1520,112,1600,104,1680,88C1760,72,1840,48,1920,60C2000,72,2080,120,2160,128C2240,136,2320,104,2400,80C2480,56,2560,40,2640,64C2720,88,2800,152,2880,184C2960,216,3040,216,3120,192C3200,168,3280,120,3360,88C3440,56,3520,40,3600,56C3680,72,3760,120,3840,136C3920,152,4000,136,4080,136C4160,136,4240,152,4320,144C4400,136,4480,104,4560,112C4640,120,4720,168,4800,188C4880,208,4960,200,5040,172C5120,144,5200,96,5280,88C5360,80,5440,112,5520,124C5600,136,5680,128,5720,124L5760,120L5760,240L5720,240C5680,240,5600,240,5520,240C5440,240,5360,240,5280,240C5200,240,5120,240,5040,240C4960,240,4880,240,4800,240C4720,240,4640,240,4560,240C4480,240,4400,240,4320,240C4240,240,4160,240,4080,240C4000,240,3920,240,3840,240C3760,240,3680,240,3600,240C3520,240,3440,240,3360,240C3280,240,3200,240,3120,240C3040,240,2960,240,2880,240C2800,240,2720,240,2640,240C2560,240,2480,240,2400,240C2320,240,2240,240,2160,240C2080,240,2000,240,1920,240C1840,240,1760,240,1680,240C1600,240,1520,240,1440,240C1360,240,1280,240,1200,240C1120,240,1040,240,960,240C880,240,800,240,720,240C640,240,560,240,480,240C400,240,320,240,240,240C160,240,80,240,40,240L0,240Z"/></svg>