<?xml version="1.0" standalone="no"?>
<svg xmlns:xlink="http://www.w3.org/1999/xlink" id="wave" style="transform:rotate(0deg); transition: 0.3s" viewBox="0 0 1440 240" version="1.1" xmlns="http://www.w3.org/2000/svg"><defs><linearGradient id="sw-gradient-0" x1="0" x2="0" y1="1" y2="0"><stop stop-color="rgba(225.722, 49.78, 49.78, 1)" offset="0%"/><stop stop-color="rgba(48.133, 0, 0, 1)" offset="100%"/></linearGradient></defs><path style="transform:translate(0, 0px); opacity:1" fill="url(#sw-gradient-0)" d="M0,72L60,84C120,96,240,120,360,108C480,96,600,48,720,56C840,64,960,128,1080,152C1200,176,1320,160,1440,156C1560,152,1680,160,1800,164C1920,168,2040,168,2160,152C2280,136,2400,104,2520,96C2640,88,2760,104,2880,112C3000,120,3120,120,3240,128C3360,136,3480,152,3600,140C3720,128,3840,88,3960,68C4080,48,4200,48,4320,40C4440,32,4560,16,4680,40C4800,64,4920,128,5040,144C5160,160,5280,128,5400,104C5520,80,5640,64,5760,60C5880,56,6000,64,6120,84C6240,104,6360,136,6480,132C6600,128,6720,88,6840,72C6960,56,7080,64,7200,76C7320,88,7440,104,7560,96C7680,88,7800,56,7920,36C8040,16,8160,8,8280,32C8400,56,8520,112,8580,140L8640,168L8640,240L8580,240C8520,240,8400,240,8280,240C8160,240,8040,240,7920,240C7800,240,7680,240,7560,240C7440,240,7320,240,7200,240C7080,240,6960,240,6840,240C6720,240,6600,240,6480,240C6360,240,6240,240,6120,240C6000,240,5880,240,5760,240C5640,240,5520,240,5400,240C5280,240,5160,240,5040,240C4920,240,4800,240,4680,240C4560,240,4440,240,4320,240C4200,240,4080,240,3960,240C3840,240,3720,240,3600,240C3480,240,3360,240,3240,240C3120,240,3000,240,2880,240C2760,240,2640,240,2520,240C2400,240,2280,240,2160,240C2040,240,1920,240,1800,240C1680,240,1560,240,1440,240C1320,240,1200,240,1080,240C960,240,840,240,720,240C600,240,480,240,360,240C240,240,120,240,60,240L0,240Z"/><defs><linearGradient id="sw-gradient-1" x1="0" x2="0" y1="1" y2="0"><stop stop-color="rgba(32.195, 7.826, 0, 1)" offset="0%"/><stop stop-color="rgba(223.445, 5.125, 5.125, 1)" offset="100%"/></linearGradient></defs><path style="transform:translate(0, 50px); opacity:0.9" fill="url(#sw-gradient-1)" d="M0,144L60,128C120,112,240,80,360,68C480,56,600,64,720,92C840,120,960,168,1080,160C1200,152,1320,88,1440,84C1560,80,1680,136,1800,164C1920,192,2040,192,2160,180C2280,168,2400,144,2520,136C2640,128,2760,136,2880,136C3000,136,3120,128,3240,128C3360,128,3480,136,3600,140C3720,144,3840,144,3960,124C4080,104,4200,64,4320,48C4440,32,4560,40,4680,60C4800,80,4920,112,5040,116C5160,120,5280,96,5400,100C5520,104,5640,136,5760,160C5880,184,6000,200,6120,172C6240,144,6360,72,6480,44C6600,16,6720,32,6840,64C6960,96,7080,144,7200,152C7320,160,7440,128,7560,108C7680,88,7800,80,7920,72C8040,64,8160,56,8280,52C8400,48,8520,48,8580,48L8640,48L8640,240L8580,240C8520,240,8400,240,8280,240C8160,240,8040,240,7920,240C7800,240,7680,240,7560,240C7440,240,7320,240,7200,240C7080,240,6960,240,6840,240C6720,240,6600,240,6480,240C6360,240,6240,240,6120,240C6000,240,5880,240,5760,240C5640,240,5520,240,5400,240C5280,240,5160,240,5040,240C4920,240,4800,240,4680,240C4560,240,4440,240,4320,240C4200,240,4080,240,3960,240C3840,240,3720,240,3600,240C3480,240,3360,240,3240,240C3120,240,3000,240,2880,240C2760,240,2640,240,2520,240C2400,240,2280,240,2160,240C2040,240,1920,240,1800,240C1680,240,1560,240,1440,240C1320,240,1200,240,1080,240C960,240,840,240,720,240C600,240,480,240,360,240C240,240,120,240,60,240L0,240Z"/></svg>