<?xml version="1.0" standalone="no"?>
<svg xmlns:xlink="http://www.w3.org/1999/xlink" id="wave" style="transform:rotate(180deg); transition: 0.3s" viewBox="0 0 1440 240" version="1.1" xmlns="http://www.w3.org/2000/svg"><defs><linearGradient id="sw-gradient-0" x1="0" x2="0" y1="1" y2="0"><stop stop-color="rgba(225.722, 49.78, 49.78, 1)" offset="0%"/><stop stop-color="rgba(48.133, 0, 0, 1)" offset="100%"/></linearGradient></defs><path style="transform:translate(0, 0px); opacity:1" fill="url(#sw-gradient-0)" d="M0,72L26.7,84C53.3,96,107,120,160,108C213.3,96,267,48,320,56C373.3,64,427,128,480,152C533.3,176,587,160,640,156C693.3,152,747,160,800,164C853.3,168,907,168,960,152C1013.3,136,1067,104,1120,96C1173.3,88,1227,104,1280,112C1333.3,120,1387,120,1440,128C1493.3,136,1547,152,1600,140C1653.3,128,1707,88,1760,68C1813.3,48,1867,48,1920,40C1973.3,32,2027,16,2080,40C2133.3,64,2187,128,2240,144C2293.3,160,2347,128,2400,104C2453.3,80,2507,64,2560,60C2613.3,56,2667,64,2720,84C2773.3,104,2827,136,2880,132C2933.3,128,2987,88,3040,72C3093.3,56,3147,64,3200,76C3253.3,88,3307,104,3360,96C3413.3,88,3467,56,3520,36C3573.3,16,3627,8,3680,32C3733.3,56,3787,112,3813,140L3840,168L3840,240L3813.3,240C3786.7,240,3733,240,3680,240C3626.7,240,3573,240,3520,240C3466.7,240,3413,240,3360,240C3306.7,240,3253,240,3200,240C3146.7,240,3093,240,3040,240C2986.7,240,2933,240,2880,240C2826.7,240,2773,240,2720,240C2666.7,240,2613,240,2560,240C2506.7,240,2453,240,2400,240C2346.7,240,2293,240,2240,240C2186.7,240,2133,240,2080,240C2026.7,240,1973,240,1920,240C1866.7,240,1813,240,1760,240C1706.7,240,1653,240,1600,240C1546.7,240,1493,240,1440,240C1386.7,240,1333,240,1280,240C1226.7,240,1173,240,1120,240C1066.7,240,1013,240,960,240C906.7,240,853,240,800,240C746.7,240,693,240,640,240C586.7,240,533,240,480,240C426.7,240,373,240,320,240C266.7,240,213,240,160,240C106.7,240,53,240,27,240L0,240Z"/><defs><linearGradient id="sw-gradient-1" x1="0" x2="0" y1="1" y2="0"><stop stop-color="rgba(32.195, 7.826, 0, 1)" offset="0%"/><stop stop-color="rgba(223.445, 5.125, 5.125, 1)" offset="100%"/></linearGradient></defs><path style="transform:translate(0, 50px); opacity:0.9" fill="url(#sw-gradient-1)" d="M0,144L26.7,128C53.3,112,107,80,160,68C213.3,56,267,64,320,92C373.3,120,427,168,480,160C533.3,152,587,88,640,84C693.3,80,747,136,800,164C853.3,192,907,192,960,180C1013.3,168,1067,144,1120,136C1173.3,128,1227,136,1280,136C1333.3,136,1387,128,1440,128C1493.3,128,1547,136,1600,140C1653.3,144,1707,144,1760,124C1813.3,104,1867,64,1920,48C1973.3,32,2027,40,2080,60C2133.3,80,2187,112,2240,116C2293.3,120,2347,96,2400,100C2453.3,104,2507,136,2560,160C2613.3,184,2667,200,2720,172C2773.3,144,2827,72,2880,44C2933.3,16,2987,32,3040,64C3093.3,96,3147,144,3200,152C3253.3,160,3307,128,3360,108C3413.3,88,3467,80,3520,72C3573.3,64,3627,56,3680,52C3733.3,48,3787,48,3813,48L3840,48L3840,240L3813.3,240C3786.7,240,3733,240,3680,240C3626.7,240,3573,240,3520,240C3466.7,240,3413,240,3360,240C3306.7,240,3253,240,3200,240C3146.7,240,3093,240,3040,240C2986.7,240,2933,240,2880,240C2826.7,240,2773,240,2720,240C2666.7,240,2613,240,2560,240C2506.7,240,2453,240,2400,240C2346.7,240,2293,240,2240,240C2186.7,240,2133,240,2080,240C2026.7,240,1973,240,1920,240C1866.7,240,1813,240,1760,240C1706.7,240,1653,240,1600,240C1546.7,240,1493,240,1440,240C1386.7,240,1333,240,1280,240C1226.7,240,1173,240,1120,240C1066.7,240,1013,240,960,240C906.7,240,853,240,800,240C746.7,240,693,240,640,240C586.7,240,533,240,480,240C426.7,240,373,240,320,240C266.7,240,213,240,160,240C106.7,240,53,240,27,240L0,240Z"/></svg>